<mxfile host="app.diagrams.net" modified="2024-04-01T03:47:21.234Z" agent="Mozilla/5.0 (Windows NT 10.0; Win64; x64) AppleWebKit/537.36 (KHTML, like Gecko) Chrome/123.0.0.0 Safari/537.36" etag="PzBSluvYAcAZV7DoSy_2" version="21.2.9" type="device">
  <diagram name="Página-1" id="leV861DUGloVnWotMMWj">
    <mxGraphModel dx="2071" dy="482" grid="1" gridSize="10" guides="1" tooltips="1" connect="1" arrows="1" fold="1" page="1" pageScale="1" pageWidth="827" pageHeight="1169" math="0" shadow="0">
      <root>
        <mxCell id="0" />
        <mxCell id="1" parent="0" />
        <mxCell id="39CDzW2CnfOSMj1d0C9v-10" value="" style="endArrow=classic;html=1;rounded=0;entryX=0.5;entryY=0;entryDx=0;entryDy=0;" edge="1" parent="1" target="39CDzW2CnfOSMj1d0C9v-43">
          <mxGeometry width="50" height="50" relative="1" as="geometry">
            <mxPoint x="470" y="220" as="sourcePoint" />
            <mxPoint x="680.3399999999999" y="277.6600000000001" as="targetPoint" />
            <Array as="points">
              <mxPoint x="490" y="220" />
              <mxPoint x="580" y="220" />
              <mxPoint x="760" y="220" />
            </Array>
          </mxGeometry>
        </mxCell>
        <mxCell id="39CDzW2CnfOSMj1d0C9v-11" value="0..n" style="text;html=1;strokeColor=none;fillColor=none;align=center;verticalAlign=middle;whiteSpace=wrap;rounded=0;" vertex="1" parent="1">
          <mxGeometry x="640" y="190" width="60" height="30" as="geometry" />
        </mxCell>
        <mxCell id="39CDzW2CnfOSMj1d0C9v-61" style="edgeStyle=orthogonalEdgeStyle;rounded=0;orthogonalLoop=1;jettySize=auto;html=1;entryX=0.429;entryY=-0.021;entryDx=0;entryDy=0;entryPerimeter=0;" edge="1" parent="1" source="39CDzW2CnfOSMj1d0C9v-39" target="39CDzW2CnfOSMj1d0C9v-57">
          <mxGeometry relative="1" as="geometry">
            <Array as="points">
              <mxPoint x="80" y="230" />
            </Array>
          </mxGeometry>
        </mxCell>
        <mxCell id="39CDzW2CnfOSMj1d0C9v-67" style="edgeStyle=orthogonalEdgeStyle;rounded=0;orthogonalLoop=1;jettySize=auto;html=1;exitX=0.5;exitY=1;exitDx=0;exitDy=0;entryX=0.5;entryY=0;entryDx=0;entryDy=0;" edge="1" parent="1" source="39CDzW2CnfOSMj1d0C9v-39" target="39CDzW2CnfOSMj1d0C9v-63">
          <mxGeometry relative="1" as="geometry" />
        </mxCell>
        <mxCell id="39CDzW2CnfOSMj1d0C9v-73" style="edgeStyle=orthogonalEdgeStyle;rounded=0;orthogonalLoop=1;jettySize=auto;html=1;entryX=0.5;entryY=0;entryDx=0;entryDy=0;" edge="1" parent="1" source="39CDzW2CnfOSMj1d0C9v-39" target="39CDzW2CnfOSMj1d0C9v-69">
          <mxGeometry relative="1" as="geometry" />
        </mxCell>
        <mxCell id="39CDzW2CnfOSMj1d0C9v-39" value="AEROLINEA" style="swimlane;fontStyle=0;childLayout=stackLayout;horizontal=1;startSize=26;fillColor=none;horizontalStack=0;resizeParent=1;resizeParentMax=0;resizeLast=0;collapsible=1;marginBottom=0;whiteSpace=wrap;html=1;" vertex="1" parent="1">
          <mxGeometry x="330" y="190" width="140" height="52" as="geometry" />
        </mxCell>
        <mxCell id="39CDzW2CnfOSMj1d0C9v-90" style="edgeStyle=orthogonalEdgeStyle;rounded=0;orthogonalLoop=1;jettySize=auto;html=1;entryX=1.043;entryY=0.308;entryDx=0;entryDy=0;entryPerimeter=0;" edge="1" parent="1" source="39CDzW2CnfOSMj1d0C9v-43" target="39CDzW2CnfOSMj1d0C9v-87">
          <mxGeometry relative="1" as="geometry" />
        </mxCell>
        <mxCell id="39CDzW2CnfOSMj1d0C9v-102" style="edgeStyle=orthogonalEdgeStyle;rounded=0;orthogonalLoop=1;jettySize=auto;html=1;" edge="1" parent="1" source="39CDzW2CnfOSMj1d0C9v-43">
          <mxGeometry relative="1" as="geometry">
            <mxPoint x="490" y="640" as="targetPoint" />
            <Array as="points">
              <mxPoint x="780" y="640" />
              <mxPoint x="500" y="640" />
            </Array>
          </mxGeometry>
        </mxCell>
        <mxCell id="39CDzW2CnfOSMj1d0C9v-43" value="&lt;i&gt;CLIENTE&lt;/i&gt;" style="swimlane;fontStyle=0;childLayout=stackLayout;horizontal=1;startSize=26;fillColor=none;horizontalStack=0;resizeParent=1;resizeParentMax=0;resizeLast=0;collapsible=1;marginBottom=0;whiteSpace=wrap;html=1;" vertex="1" parent="1">
          <mxGeometry x="690" y="290" width="140" height="104" as="geometry" />
        </mxCell>
        <mxCell id="39CDzW2CnfOSMj1d0C9v-44" value="+ field: type" style="text;strokeColor=none;fillColor=none;align=left;verticalAlign=top;spacingLeft=4;spacingRight=4;overflow=hidden;rotatable=0;points=[[0,0.5],[1,0.5]];portConstraint=eastwest;whiteSpace=wrap;html=1;" vertex="1" parent="39CDzW2CnfOSMj1d0C9v-43">
          <mxGeometry y="26" width="140" height="26" as="geometry" />
        </mxCell>
        <mxCell id="39CDzW2CnfOSMj1d0C9v-45" value="+ field: type" style="text;strokeColor=none;fillColor=none;align=left;verticalAlign=top;spacingLeft=4;spacingRight=4;overflow=hidden;rotatable=0;points=[[0,0.5],[1,0.5]];portConstraint=eastwest;whiteSpace=wrap;html=1;" vertex="1" parent="39CDzW2CnfOSMj1d0C9v-43">
          <mxGeometry y="52" width="140" height="26" as="geometry" />
        </mxCell>
        <mxCell id="39CDzW2CnfOSMj1d0C9v-46" value="+ field: type" style="text;strokeColor=none;fillColor=none;align=left;verticalAlign=top;spacingLeft=4;spacingRight=4;overflow=hidden;rotatable=0;points=[[0,0.5],[1,0.5]];portConstraint=eastwest;whiteSpace=wrap;html=1;" vertex="1" parent="39CDzW2CnfOSMj1d0C9v-43">
          <mxGeometry y="78" width="140" height="26" as="geometry" />
        </mxCell>
        <mxCell id="39CDzW2CnfOSMj1d0C9v-47" value="CLIENTE CORPORATICO" style="swimlane;fontStyle=0;childLayout=stackLayout;horizontal=1;startSize=26;fillColor=none;horizontalStack=0;resizeParent=1;resizeParentMax=0;resizeLast=0;collapsible=1;marginBottom=0;whiteSpace=wrap;html=1;" vertex="1" parent="1">
          <mxGeometry x="550" y="430" width="140" height="78" as="geometry" />
        </mxCell>
        <mxCell id="39CDzW2CnfOSMj1d0C9v-48" value="NombreEmpresa: String" style="text;strokeColor=none;fillColor=none;align=left;verticalAlign=top;spacingLeft=4;spacingRight=4;overflow=hidden;rotatable=0;points=[[0,0.5],[1,0.5]];portConstraint=eastwest;whiteSpace=wrap;html=1;" vertex="1" parent="39CDzW2CnfOSMj1d0C9v-47">
          <mxGeometry y="26" width="140" height="26" as="geometry" />
        </mxCell>
        <mxCell id="39CDzW2CnfOSMj1d0C9v-50" value="Tamaño: int" style="text;strokeColor=none;fillColor=none;align=left;verticalAlign=top;spacingLeft=4;spacingRight=4;overflow=hidden;rotatable=0;points=[[0,0.5],[1,0.5]];portConstraint=eastwest;whiteSpace=wrap;html=1;" vertex="1" parent="39CDzW2CnfOSMj1d0C9v-47">
          <mxGeometry y="52" width="140" height="26" as="geometry" />
        </mxCell>
        <mxCell id="39CDzW2CnfOSMj1d0C9v-51" value="CLIENTE NATURAL" style="swimlane;fontStyle=0;childLayout=stackLayout;horizontal=1;startSize=26;fillColor=none;horizontalStack=0;resizeParent=1;resizeParentMax=0;resizeLast=0;collapsible=1;marginBottom=0;whiteSpace=wrap;html=1;" vertex="1" parent="1">
          <mxGeometry x="943" y="430" width="140" height="52" as="geometry" />
        </mxCell>
        <mxCell id="39CDzW2CnfOSMj1d0C9v-52" value="nombre: String" style="text;strokeColor=none;fillColor=none;align=left;verticalAlign=top;spacingLeft=4;spacingRight=4;overflow=hidden;rotatable=0;points=[[0,0.5],[1,0.5]];portConstraint=eastwest;whiteSpace=wrap;html=1;" vertex="1" parent="39CDzW2CnfOSMj1d0C9v-51">
          <mxGeometry y="26" width="140" height="26" as="geometry" />
        </mxCell>
        <mxCell id="39CDzW2CnfOSMj1d0C9v-55" value="Extends" style="endArrow=block;endSize=16;endFill=0;html=1;rounded=0;exitX=0.5;exitY=0;exitDx=0;exitDy=0;entryX=0;entryY=0.5;entryDx=0;entryDy=0;" edge="1" parent="1" source="39CDzW2CnfOSMj1d0C9v-47" target="39CDzW2CnfOSMj1d0C9v-45">
          <mxGeometry width="160" relative="1" as="geometry">
            <mxPoint x="393" y="420" as="sourcePoint" />
            <mxPoint x="553" y="420" as="targetPoint" />
            <Array as="points">
              <mxPoint x="620" y="355" />
            </Array>
          </mxGeometry>
        </mxCell>
        <mxCell id="39CDzW2CnfOSMj1d0C9v-56" value="Extends" style="endArrow=block;endSize=16;endFill=0;html=1;rounded=0;entryX=1;entryY=0.5;entryDx=0;entryDy=0;exitX=0.5;exitY=0;exitDx=0;exitDy=0;" edge="1" parent="1" source="39CDzW2CnfOSMj1d0C9v-51" target="39CDzW2CnfOSMj1d0C9v-45">
          <mxGeometry width="160" relative="1" as="geometry">
            <mxPoint x="613" y="390" as="sourcePoint" />
            <mxPoint x="773" y="390" as="targetPoint" />
            <Array as="points">
              <mxPoint x="1013" y="355" />
            </Array>
          </mxGeometry>
        </mxCell>
        <mxCell id="39CDzW2CnfOSMj1d0C9v-57" value="AVIÓN" style="swimlane;fontStyle=0;childLayout=stackLayout;horizontal=1;startSize=26;fillColor=none;horizontalStack=0;resizeParent=1;resizeParentMax=0;resizeLast=0;collapsible=1;marginBottom=0;whiteSpace=wrap;html=1;" vertex="1" parent="1">
          <mxGeometry x="20" y="280" width="140" height="78" as="geometry" />
        </mxCell>
        <mxCell id="39CDzW2CnfOSMj1d0C9v-83" style="edgeStyle=orthogonalEdgeStyle;rounded=0;orthogonalLoop=1;jettySize=auto;html=1;" edge="1" parent="39CDzW2CnfOSMj1d0C9v-57" source="39CDzW2CnfOSMj1d0C9v-58">
          <mxGeometry relative="1" as="geometry">
            <mxPoint x="-170" y="40" as="targetPoint" />
            <Array as="points">
              <mxPoint x="-20" y="39" />
              <mxPoint x="-20" y="40" />
              <mxPoint x="-170" y="40" />
            </Array>
          </mxGeometry>
        </mxCell>
        <mxCell id="39CDzW2CnfOSMj1d0C9v-58" value="nombre: String" style="text;strokeColor=none;fillColor=none;align=left;verticalAlign=top;spacingLeft=4;spacingRight=4;overflow=hidden;rotatable=0;points=[[0,0.5],[1,0.5]];portConstraint=eastwest;whiteSpace=wrap;html=1;" vertex="1" parent="39CDzW2CnfOSMj1d0C9v-57">
          <mxGeometry y="26" width="140" height="26" as="geometry" />
        </mxCell>
        <mxCell id="39CDzW2CnfOSMj1d0C9v-59" value="capacidad: int" style="text;strokeColor=none;fillColor=none;align=left;verticalAlign=top;spacingLeft=4;spacingRight=4;overflow=hidden;rotatable=0;points=[[0,0.5],[1,0.5]];portConstraint=eastwest;whiteSpace=wrap;html=1;" vertex="1" parent="39CDzW2CnfOSMj1d0C9v-57">
          <mxGeometry y="52" width="140" height="26" as="geometry" />
        </mxCell>
        <mxCell id="39CDzW2CnfOSMj1d0C9v-62" value="0..n" style="text;html=1;strokeColor=none;fillColor=none;align=center;verticalAlign=middle;whiteSpace=wrap;rounded=0;" vertex="1" parent="1">
          <mxGeometry x="180" y="230" width="60" height="30" as="geometry" />
        </mxCell>
        <mxCell id="39CDzW2CnfOSMj1d0C9v-89" style="edgeStyle=orthogonalEdgeStyle;rounded=0;orthogonalLoop=1;jettySize=auto;html=1;entryX=0.4;entryY=0;entryDx=0;entryDy=0;entryPerimeter=0;" edge="1" parent="1" source="39CDzW2CnfOSMj1d0C9v-63" target="39CDzW2CnfOSMj1d0C9v-85">
          <mxGeometry relative="1" as="geometry" />
        </mxCell>
        <mxCell id="39CDzW2CnfOSMj1d0C9v-93" style="edgeStyle=orthogonalEdgeStyle;rounded=0;orthogonalLoop=1;jettySize=auto;html=1;entryX=1;entryY=0.5;entryDx=0;entryDy=0;" edge="1" parent="1" source="39CDzW2CnfOSMj1d0C9v-63" target="39CDzW2CnfOSMj1d0C9v-59">
          <mxGeometry relative="1" as="geometry">
            <Array as="points">
              <mxPoint x="245" y="346" />
              <mxPoint x="245" y="345" />
            </Array>
          </mxGeometry>
        </mxCell>
        <mxCell id="39CDzW2CnfOSMj1d0C9v-63" value="VUELO" style="swimlane;fontStyle=0;childLayout=stackLayout;horizontal=1;startSize=26;fillColor=none;horizontalStack=0;resizeParent=1;resizeParentMax=0;resizeLast=0;collapsible=1;marginBottom=0;whiteSpace=wrap;html=1;" vertex="1" parent="1">
          <mxGeometry x="330" y="320" width="140" height="52" as="geometry" />
        </mxCell>
        <mxCell id="39CDzW2CnfOSMj1d0C9v-64" value="Fecha: String" style="text;strokeColor=none;fillColor=none;align=left;verticalAlign=top;spacingLeft=4;spacingRight=4;overflow=hidden;rotatable=0;points=[[0,0.5],[1,0.5]];portConstraint=eastwest;whiteSpace=wrap;html=1;" vertex="1" parent="39CDzW2CnfOSMj1d0C9v-63">
          <mxGeometry y="26" width="140" height="26" as="geometry" />
        </mxCell>
        <mxCell id="39CDzW2CnfOSMj1d0C9v-68" value="&lt;span style=&quot;color: rgb(0, 0, 0); font-family: Helvetica; font-size: 12px; font-style: normal; font-variant-ligatures: normal; font-variant-caps: normal; font-weight: 400; letter-spacing: normal; orphans: 2; text-align: center; text-indent: 0px; text-transform: none; widows: 2; word-spacing: 0px; -webkit-text-stroke-width: 0px; background-color: rgb(251, 251, 251); text-decoration-thickness: initial; text-decoration-style: initial; text-decoration-color: initial; float: none; display: inline !important;&quot;&gt;0..n&lt;/span&gt;" style="text;whiteSpace=wrap;html=1;" vertex="1" parent="1">
          <mxGeometry x="400" y="270" width="50" height="40" as="geometry" />
        </mxCell>
        <mxCell id="39CDzW2CnfOSMj1d0C9v-80" style="edgeStyle=orthogonalEdgeStyle;rounded=0;orthogonalLoop=1;jettySize=auto;html=1;entryX=0.5;entryY=0;entryDx=0;entryDy=0;" edge="1" parent="1" source="39CDzW2CnfOSMj1d0C9v-69" target="39CDzW2CnfOSMj1d0C9v-75">
          <mxGeometry relative="1" as="geometry" />
        </mxCell>
        <mxCell id="39CDzW2CnfOSMj1d0C9v-69" value="RUTA" style="swimlane;fontStyle=0;childLayout=stackLayout;horizontal=1;startSize=26;fillColor=none;horizontalStack=0;resizeParent=1;resizeParentMax=0;resizeLast=0;collapsible=1;marginBottom=0;whiteSpace=wrap;html=1;" vertex="1" parent="1">
          <mxGeometry x="-300" y="240" width="140" height="104" as="geometry" />
        </mxCell>
        <mxCell id="39CDzW2CnfOSMj1d0C9v-70" value="horaSalida: String" style="text;strokeColor=none;fillColor=none;align=left;verticalAlign=top;spacingLeft=4;spacingRight=4;overflow=hidden;rotatable=0;points=[[0,0.5],[1,0.5]];portConstraint=eastwest;whiteSpace=wrap;html=1;" vertex="1" parent="39CDzW2CnfOSMj1d0C9v-69">
          <mxGeometry y="26" width="140" height="26" as="geometry" />
        </mxCell>
        <mxCell id="39CDzW2CnfOSMj1d0C9v-71" value="horaLlegada:String" style="text;strokeColor=none;fillColor=none;align=left;verticalAlign=top;spacingLeft=4;spacingRight=4;overflow=hidden;rotatable=0;points=[[0,0.5],[1,0.5]];portConstraint=eastwest;whiteSpace=wrap;html=1;" vertex="1" parent="39CDzW2CnfOSMj1d0C9v-69">
          <mxGeometry y="52" width="140" height="26" as="geometry" />
        </mxCell>
        <mxCell id="39CDzW2CnfOSMj1d0C9v-72" value="codigoRuta: String" style="text;strokeColor=none;fillColor=none;align=left;verticalAlign=top;spacingLeft=4;spacingRight=4;overflow=hidden;rotatable=0;points=[[0,0.5],[1,0.5]];portConstraint=eastwest;whiteSpace=wrap;html=1;" vertex="1" parent="39CDzW2CnfOSMj1d0C9v-69">
          <mxGeometry y="78" width="140" height="26" as="geometry" />
        </mxCell>
        <mxCell id="39CDzW2CnfOSMj1d0C9v-74" value="&lt;span style=&quot;color: rgb(0, 0, 0); font-family: Helvetica; font-size: 12px; font-style: normal; font-variant-ligatures: normal; font-variant-caps: normal; font-weight: 400; letter-spacing: normal; orphans: 2; text-align: center; text-indent: 0px; text-transform: none; widows: 2; word-spacing: 0px; -webkit-text-stroke-width: 0px; background-color: rgb(251, 251, 251); text-decoration-thickness: initial; text-decoration-style: initial; text-decoration-color: initial; float: none; display: inline !important;&quot;&gt;0..n&lt;/span&gt;" style="text;whiteSpace=wrap;html=1;" vertex="1" parent="1">
          <mxGeometry y="180" width="50" height="40" as="geometry" />
        </mxCell>
        <mxCell id="39CDzW2CnfOSMj1d0C9v-75" value="Aeropuerto" style="swimlane;fontStyle=0;childLayout=stackLayout;horizontal=1;startSize=26;fillColor=none;horizontalStack=0;resizeParent=1;resizeParentMax=0;resizeLast=0;collapsible=1;marginBottom=0;whiteSpace=wrap;html=1;" vertex="1" parent="1">
          <mxGeometry x="-300" y="410" width="140" height="180" as="geometry">
            <mxRectangle x="-250" y="400" width="100" height="30" as="alternateBounds" />
          </mxGeometry>
        </mxCell>
        <mxCell id="39CDzW2CnfOSMj1d0C9v-76" value="nombre: String" style="text;strokeColor=none;fillColor=none;align=left;verticalAlign=top;spacingLeft=4;spacingRight=4;overflow=hidden;rotatable=0;points=[[0,0.5],[1,0.5]];portConstraint=eastwest;whiteSpace=wrap;html=1;" vertex="1" parent="39CDzW2CnfOSMj1d0C9v-75">
          <mxGeometry y="26" width="140" height="26" as="geometry" />
        </mxCell>
        <mxCell id="39CDzW2CnfOSMj1d0C9v-77" value="codigo: String" style="text;strokeColor=none;fillColor=none;align=left;verticalAlign=top;spacingLeft=4;spacingRight=4;overflow=hidden;rotatable=0;points=[[0,0.5],[1,0.5]];portConstraint=eastwest;whiteSpace=wrap;html=1;" vertex="1" parent="39CDzW2CnfOSMj1d0C9v-75">
          <mxGeometry y="52" width="140" height="26" as="geometry" />
        </mxCell>
        <mxCell id="39CDzW2CnfOSMj1d0C9v-78" value="nombreCiudad: String&lt;br&gt;&lt;br&gt;latitud: Double&lt;br&gt;&lt;br&gt;Longitud:Double" style="text;strokeColor=none;fillColor=none;align=left;verticalAlign=top;spacingLeft=4;spacingRight=4;overflow=hidden;rotatable=0;points=[[0,0.5],[1,0.5]];portConstraint=eastwest;whiteSpace=wrap;html=1;" vertex="1" parent="39CDzW2CnfOSMj1d0C9v-75">
          <mxGeometry y="78" width="140" height="102" as="geometry" />
        </mxCell>
        <mxCell id="39CDzW2CnfOSMj1d0C9v-82" value="&lt;span style=&quot;color: rgb(0, 0, 0); font-family: Helvetica; font-size: 12px; font-style: normal; font-variant-ligatures: normal; font-variant-caps: normal; font-weight: 400; letter-spacing: normal; orphans: 2; text-align: center; text-indent: 0px; text-transform: none; widows: 2; word-spacing: 0px; -webkit-text-stroke-width: 0px; background-color: rgb(251, 251, 251); text-decoration-thickness: initial; text-decoration-style: initial; text-decoration-color: initial; float: none; display: inline !important;&quot;&gt;2&lt;/span&gt;" style="text;whiteSpace=wrap;html=1;" vertex="1" parent="1">
          <mxGeometry x="-220" y="358" width="50" height="40" as="geometry" />
        </mxCell>
        <mxCell id="39CDzW2CnfOSMj1d0C9v-84" value="&lt;span style=&quot;color: rgb(0, 0, 0); font-family: Helvetica; font-size: 12px; font-style: normal; font-variant-ligatures: normal; font-variant-caps: normal; font-weight: 400; letter-spacing: normal; orphans: 2; text-align: center; text-indent: 0px; text-transform: none; widows: 2; word-spacing: 0px; -webkit-text-stroke-width: 0px; background-color: rgb(251, 251, 251); text-decoration-thickness: initial; text-decoration-style: initial; text-decoration-color: initial; float: none; display: inline !important;&quot;&gt;1&lt;/span&gt;" style="text;whiteSpace=wrap;html=1;" vertex="1" parent="1">
          <mxGeometry x="-110" y="332" width="50" height="40" as="geometry" />
        </mxCell>
        <mxCell id="39CDzW2CnfOSMj1d0C9v-95" style="edgeStyle=orthogonalEdgeStyle;rounded=0;orthogonalLoop=1;jettySize=auto;html=1;" edge="1" parent="1" source="39CDzW2CnfOSMj1d0C9v-85">
          <mxGeometry relative="1" as="geometry">
            <mxPoint x="414" y="380" as="targetPoint" />
          </mxGeometry>
        </mxCell>
        <mxCell id="39CDzW2CnfOSMj1d0C9v-85" value="Tiquetes" style="swimlane;fontStyle=0;childLayout=stackLayout;horizontal=1;startSize=26;fillColor=none;horizontalStack=0;resizeParent=1;resizeParentMax=0;resizeLast=0;collapsible=1;marginBottom=0;whiteSpace=wrap;html=1;" vertex="1" parent="1">
          <mxGeometry x="344" y="560" width="140" height="104" as="geometry" />
        </mxCell>
        <mxCell id="39CDzW2CnfOSMj1d0C9v-86" value="codigo:String" style="text;strokeColor=none;fillColor=none;align=left;verticalAlign=top;spacingLeft=4;spacingRight=4;overflow=hidden;rotatable=0;points=[[0,0.5],[1,0.5]];portConstraint=eastwest;whiteSpace=wrap;html=1;" vertex="1" parent="39CDzW2CnfOSMj1d0C9v-85">
          <mxGeometry y="26" width="140" height="26" as="geometry" />
        </mxCell>
        <mxCell id="39CDzW2CnfOSMj1d0C9v-87" value="tarifa: int" style="text;strokeColor=none;fillColor=none;align=left;verticalAlign=top;spacingLeft=4;spacingRight=4;overflow=hidden;rotatable=0;points=[[0,0.5],[1,0.5]];portConstraint=eastwest;whiteSpace=wrap;html=1;" vertex="1" parent="39CDzW2CnfOSMj1d0C9v-85">
          <mxGeometry y="52" width="140" height="26" as="geometry" />
        </mxCell>
        <mxCell id="39CDzW2CnfOSMj1d0C9v-88" value="usado: boolean" style="text;strokeColor=none;fillColor=none;align=left;verticalAlign=top;spacingLeft=4;spacingRight=4;overflow=hidden;rotatable=0;points=[[0,0.5],[1,0.5]];portConstraint=eastwest;whiteSpace=wrap;html=1;" vertex="1" parent="39CDzW2CnfOSMj1d0C9v-85">
          <mxGeometry y="78" width="140" height="26" as="geometry" />
        </mxCell>
        <mxCell id="39CDzW2CnfOSMj1d0C9v-91" value="0..n" style="text;html=1;strokeColor=none;fillColor=none;align=center;verticalAlign=middle;whiteSpace=wrap;rounded=0;" vertex="1" parent="1">
          <mxGeometry x="344" y="452" width="60" height="30" as="geometry" />
        </mxCell>
        <mxCell id="39CDzW2CnfOSMj1d0C9v-92" value="0..1" style="text;html=1;strokeColor=none;fillColor=none;align=center;verticalAlign=middle;whiteSpace=wrap;rounded=0;" vertex="1" parent="1">
          <mxGeometry x="590" y="590" width="60" height="30" as="geometry" />
        </mxCell>
        <mxCell id="39CDzW2CnfOSMj1d0C9v-94" value="1" style="text;html=1;strokeColor=none;fillColor=none;align=center;verticalAlign=middle;whiteSpace=wrap;rounded=0;" vertex="1" parent="1">
          <mxGeometry x="210" y="304" width="60" height="30" as="geometry" />
        </mxCell>
        <mxCell id="39CDzW2CnfOSMj1d0C9v-96" value="1" style="text;html=1;strokeColor=none;fillColor=none;align=center;verticalAlign=middle;whiteSpace=wrap;rounded=0;" vertex="1" parent="1">
          <mxGeometry x="414" y="454" width="60" height="30" as="geometry" />
        </mxCell>
        <mxCell id="39CDzW2CnfOSMj1d0C9v-98" style="edgeStyle=orthogonalEdgeStyle;rounded=0;orthogonalLoop=1;jettySize=auto;html=1;entryX=0.742;entryY=1.032;entryDx=0;entryDy=0;entryPerimeter=0;" edge="1" parent="1" source="39CDzW2CnfOSMj1d0C9v-88" target="39CDzW2CnfOSMj1d0C9v-46">
          <mxGeometry relative="1" as="geometry" />
        </mxCell>
        <mxCell id="39CDzW2CnfOSMj1d0C9v-99" value="Tiquetes usados 0...n" style="text;html=1;strokeColor=none;fillColor=none;align=center;verticalAlign=middle;whiteSpace=wrap;rounded=0;" vertex="1" parent="1">
          <mxGeometry x="590" y="650" width="90" height="30" as="geometry" />
        </mxCell>
        <mxCell id="39CDzW2CnfOSMj1d0C9v-100" style="edgeStyle=orthogonalEdgeStyle;rounded=0;orthogonalLoop=1;jettySize=auto;html=1;" edge="1" parent="1" source="39CDzW2CnfOSMj1d0C9v-64">
          <mxGeometry relative="1" as="geometry">
            <mxPoint x="-180" y="350" as="targetPoint" />
            <Array as="points">
              <mxPoint x="360" y="390" />
              <mxPoint x="-180" y="390" />
            </Array>
          </mxGeometry>
        </mxCell>
        <mxCell id="39CDzW2CnfOSMj1d0C9v-101" value="1" style="text;html=1;strokeColor=none;fillColor=none;align=center;verticalAlign=middle;whiteSpace=wrap;rounded=0;" vertex="1" parent="1">
          <mxGeometry x="30" y="394" width="60" height="30" as="geometry" />
        </mxCell>
        <mxCell id="39CDzW2CnfOSMj1d0C9v-103" value="Tiquetes sin usar 0...n" style="text;html=1;strokeColor=none;fillColor=none;align=center;verticalAlign=middle;whiteSpace=wrap;rounded=0;" vertex="1" parent="1">
          <mxGeometry x="550" y="620" width="190" height="20" as="geometry" />
        </mxCell>
        <mxCell id="39CDzW2CnfOSMj1d0C9v-108" value="" style="rounded=1;whiteSpace=wrap;html=1;" vertex="1" parent="1">
          <mxGeometry x="-230" y="670" width="440" height="220" as="geometry" />
        </mxCell>
        <mxCell id="39CDzW2CnfOSMj1d0C9v-109" value="&lt;h1&gt;Historia de usuario&lt;/h1&gt;" style="text;html=1;strokeColor=none;fillColor=none;spacing=5;spacingTop=-20;whiteSpace=wrap;overflow=hidden;rounded=0;" vertex="1" parent="1">
          <mxGeometry x="-140" y="670" width="350" height="120" as="geometry" />
        </mxCell>
        <mxCell id="39CDzW2CnfOSMj1d0C9v-110" value="Como dueño de un equipo de profesional de fútbol necesito una aerolínea la cual me permita saber la fecha de salida de cada vuelo para poder comprar vuelos con tiempo para que mis jugadores lleguen a tiempo para jugar su partido&amp;nbsp;&amp;nbsp;" style="text;html=1;strokeColor=none;fillColor=none;align=center;verticalAlign=middle;whiteSpace=wrap;rounded=0;" vertex="1" parent="1">
          <mxGeometry x="-230" y="710" width="440" height="70" as="geometry" />
        </mxCell>
        <mxCell id="39CDzW2CnfOSMj1d0C9v-111" value="&lt;h1&gt;Requerimientos funcionales&lt;/h1&gt;&lt;p&gt;&lt;br&gt;&lt;/p&gt;" style="text;html=1;strokeColor=none;fillColor=none;spacing=5;spacingTop=-20;whiteSpace=wrap;overflow=hidden;rounded=0;" vertex="1" parent="1">
          <mxGeometry x="-230" y="770" width="440" height="120" as="geometry" />
        </mxCell>
        <mxCell id="39CDzW2CnfOSMj1d0C9v-112" value="&lt;div style=&quot;text-align: left;&quot;&gt;&lt;span style=&quot;background-color: initial;&quot;&gt;-Mostrar la fecha de un vuelo: Esto para que el dueño del equipo pueda saber las fechas que le sirven para comprar un vuelo.&lt;/span&gt;&lt;/div&gt;&lt;div style=&quot;text-align: left;&quot;&gt;&lt;span style=&quot;background-color: initial;&quot;&gt;-Comprar tiquetes: Esto para que sus jugadores puedan viajar.&lt;/span&gt;&lt;/div&gt;&lt;div style=&quot;text-align: left;&quot;&gt;&lt;span style=&quot;background-color: initial;&quot;&gt;-Crear nuevo cliente: Esto para que el dueño del equipo pueda usar la app de la aerolínea para comprar los tiquetes.&amp;nbsp;&lt;/span&gt;&lt;/div&gt;&amp;nbsp;" style="text;html=1;strokeColor=none;fillColor=none;align=center;verticalAlign=middle;whiteSpace=wrap;rounded=0;" vertex="1" parent="1">
          <mxGeometry x="-230" y="800" width="440" height="90" as="geometry" />
        </mxCell>
      </root>
    </mxGraphModel>
  </diagram>
</mxfile>
